<svg xmlns="http://www.w3.org/2000/svg" width="553.539" height="167.071" viewBox="0 0 553.539 167.071">
  <g id="firma-herme" transform="translate(1.506 1.501)">
    <path id="o" d="M1232.143,353.607s-11.786,8.581-10.286,10.251,9.678.536,16.286-3.571,11.607-8.321,9-10.857-18.571,1-18.571,1" transform="translate(-697.376 -249.941)" fill="none" stroke="#000" stroke-linecap="round" stroke-width="3"/>
    <path id="ce" d="M1212,357.423s4.281-5.567,2.25-5.735-7.325,1.441-10.125,5.188-1.875,6.125.375,6.438,7.5-1.812,7.5-1.812" transform="translate(-697.376 -249.941)" fill="none" stroke="#000" stroke-linecap="round" stroke-width="3"/>
    <path id="ene" d="M1157.6,353.8c-.8,1.4-14.2,12.6-11.8,12.6s28-10.6,32.8-12.6-16.2,12.2-11.4,11,25.3-10.6,29.2-11-12.4,6.95-12.4,9.4,11.4-1.2,11.4-1.2" transform="translate(-697.376 -249.941)" fill="none" stroke="#000" stroke-linecap="round" stroke-width="3"/>
    <path id="a-sin-rabo" d="M1158.8,348.4a37.8,37.8,0,0,0-9.2,2.8,37.024,37.024,0,0,0-8.4,5.6c-4.5,4.35-5.3,9.1-2.6,9.8s9.75-3.45,13.4-7.8,0-10.4,0-10.4" transform="translate(-697.376 -249.941)" fill="none" stroke="#000" stroke-linecap="round" stroke-width="3"/>
    <path id="efe-ere" d="M1115.667,298.775s-22.05,4.919-32.867,1.225-11.8-16-7.6-16.4,4.467,15.3,29,12.4,53.667-10.6,69.133-24,9.067-29.6-1.933-18.2c-3.971,4.115-15.346,20.2-30.6,39.4-26.587,33.466-61.733,76.512-64.8,80.133-4.8,5.667,6.333-15.2,9.667-32.667s4.6-40.467,0-34.667S1113,326,1113,326s16.133,7.733,18.667,6.667,1.567-10.45,0-13.267-9.183-.583-6.267,2,18.4,4.467,18.8,8.6-22.317,13.733-26.533,17.4,5.217-2.5,10.133-1.6,10.8,2.6,9.533,5.2-21.667,13.8-21.667,13.8" transform="translate(-697.376 -249.941)" fill="none" stroke="#000" stroke-linecap="round" stroke-width="3"/>
    <path id="a" d="M1036.75,373.75s-12.875,6.875-15.625,2.75,17.375-23.25,22.125-18.25-7.375,15.125-6.5,15.5c0,0,2.313,2.125,7.125,2.25S1056,374.25,1056,374.25" transform="translate(-697.376 -249.941)" fill="none" stroke="#000" stroke-width="3"/>
    <path id="de" d="M1014.625,364.25s-1-7.094-6.875-4.625-15.562,10.563-16.625,14.5,8.875,2.625,14.125,0,17.063-19.344,23.75-29.375,6.75-14.875,3.75-10.5-22,36.125-25,39.875,5.75,0,5.75,0" transform="translate(-697.376 -249.941)" fill="none" stroke="#000" stroke-linecap="round" stroke-width="3"/>
    <path id="in" d="M951.25,364s-6.417,12.417-7.25,13.714-5.333,1.964-1.917,0S966.524,363,970.429,363s-5,11-7.714,13.571-3.5-1.571,0-2.738c0,0,19.75-11.4,24.143-12.119s-1.286,7.429-1.286,7.429S977,376.357,976,376.571s1.417-3.988,5.571-6.571,12.857-2,12.857-2" transform="translate(-697.376 -249.941)" fill="none" stroke="#000" stroke-linecap="round" stroke-width="3"/>
    <path id="ele" d="M916.714,363.143s-12.429,11.571-10,12.143,11.607,4.25,27.429-8.857,39-41.714,35.857-43.571-31,31.857-31,31.857-16,16.571-18.143,20.571,7.571,0,7.571,0" transform="translate(-697.376 -249.941)" fill="none" stroke="#000" stroke-linecap="round" stroke-width="3"/>
    <path id="erm" d="M789.014,366.4s7.9,5.45,12.843,4.2,8.943-6.75,6.943-9.2-13.036-.45-17.086,5-3.171,13.621,2,16.171,9.607-1.007,16.429-4S818.85,374.4,821,370.6s-1.857-9.229,0-9.2,10.571,4.314,11,5.8-13.5,14.4-10,12.6,27-24.371,29.429-19.8-7.857,14.714-5.429,14.8,23.571-15.229,27.143-13.4-13.429,13.886-9,14.029,26.457-13.743,30.571-13S882.429,375,882.286,376.857,892.6,374.8,892.6,374.8" transform="translate(-697.376 -249.941)" fill="none" stroke="#000" stroke-linecap="round" stroke-width="3"/>
    <path id="palito-h" d="M753.75,598.31l6-3.06" transform="translate(-442.64 -700.774) rotate(20)" fill="none" stroke="#000" stroke-linecap="round" stroke-width="3"/>
    <path id="media-h" d="M754,387.125a22.273,22.273,0,0,1,3.125-9c4.372-7.409,13.767-18.951,25.125-32.5,18.469-22.031,40-49.625,45.625-46.625s-23.75,35-23.75,35" transform="translate(-697.376 -249.941)" fill="none" stroke="#000" stroke-linecap="round" stroke-width="3"/>
    <path id="media-h-2" data-name="media-h" d="M723.167,348.667s13.833-8.167,31.667-21,24.167-29.167,27-34.5-8.167-2.667-15,7.667.5,16.833,3.167,19,9.583,2.125,14.167-.667,6.167-14.333,3.667-10.5-17.125,42.667-38,69S715.75,413.458,704.333,414s-7.375-22,2-33,31.5-12.167,31.5-12.167" transform="translate(-697.376 -249.941)" fill="none" stroke="#000" stroke-linecap="round" stroke-width="3"/>
  </g>
</svg>
